HIERARCHY
ROOT newVegas:Hips
{
	OFFSET 0.000000 96.479958 0.000000
	CHANNELS 6 Xposition Yposition Zposition Xrotation Yrotation Zrotation
	JOINT newVegas:Pelvis
	{
		OFFSET 0.000000 0.000000 0.000000
		CHANNELS 3 Xrotation Yrotation Zrotation
		JOINT newVegas:LeftUpLeg
		{
			OFFSET 18.735201 -5.666702 -4.541200
			CHANNELS 3 Xrotation Yrotation Zrotation
			JOINT newVegas:LeftLeg
			{
				OFFSET -0.021200 -31.938179 0.493100
				CHANNELS 3 Xrotation Yrotation Zrotation
				JOINT newVegas:LeftFoot
				{
					OFFSET 0.021200 -31.938179 -4.336299
					CHANNELS 3 Xrotation Yrotation Zrotation
					JOINT newVegas:LeftToeBase
					{
						OFFSET 0.943001 -26.722000 15.023500
						CHANNELS 3 Xrotation Yrotation Zrotation
						End Site
						{
							OFFSET 0.000000 30.670183 0.000000
						}
					}
				}
				JOINT newVegas:Left_PantLeg
				{
					OFFSET 0.663870 -9.044666 -1.108900
					CHANNELS 3 Xrotation Yrotation Zrotation
					End Site
					{
						OFFSET 1.415995 20.635357 0.000000
					}
				}
			}
		}
		JOINT newVegas:RightUpLeg
		{
			OFFSET -18.735201 -5.666702 -4.541200
			CHANNELS 3 Xrotation Yrotation Zrotation
			JOINT newVegas:RightLeg
			{
				OFFSET 0.018946 -31.938133 0.493100
				CHANNELS 3 Xrotation Yrotation Zrotation
				JOINT newVegas:RightFoot
				{
					OFFSET -0.018946 -31.938126 -4.336299
					CHANNELS 3 Xrotation Yrotation Zrotation
					JOINT newVegas:RightToeBase
					{
						OFFSET -0.943001 -26.722004 15.023500
						CHANNELS 3 Xrotation Yrotation Zrotation
						End Site
						{
							OFFSET 0.000000 30.670187 0.000000
						}
					}
				}
				JOINT newVegas:Right_PantLeg
				{
					OFFSET -0.661674 -9.044716 -1.108900
					CHANNELS 3 Xrotation Yrotation Zrotation
					End Site
					{
						OFFSET -1.415958 20.635269 0.000000
					}
				}
			}
		}
	}
	JOINT newVegas:Spine
	{
		OFFSET 0.000000 10.199997 -0.299500
		CHANNELS 3 Xrotation Yrotation Zrotation
		JOINT newVegas:Spine1
		{
			OFFSET 0.000000 11.900002 -1.516600
			CHANNELS 3 Xrotation Yrotation Zrotation
			JOINT newVegas:Spine2
			{
				OFFSET 0.000000 13.600006 -2.842500
				CHANNELS 3 Xrotation Yrotation Zrotation
				JOINT newVegas:Neck
				{
					OFFSET 0.000000 9.624100 -2.890100
					CHANNELS 3 Xrotation Yrotation Zrotation
					JOINT newVegas:Head
					{
						OFFSET 0.000000 14.068802 -1.351900
						CHANNELS 3 Xrotation Yrotation Zrotation
						JOINT newVegas:Hair_Back
						{
							OFFSET 0.000000 3.231903 -17.524799
							CHANNELS 3 Xrotation Yrotation Zrotation
							End Site
							{
								OFFSET 0.000000 19.849884 0.000000
							}
						}
						JOINT newVegas:Hair_Front
						{
							OFFSET 0.000000 31.260406 4.573800
							CHANNELS 3 Xrotation Yrotation Zrotation
							JOINT newVegas:Hair_Front1
							{
								OFFSET 0.000000 2.284103 11.993300
								CHANNELS 3 Xrotation Yrotation Zrotation
								JOINT newVegas:Hair_Front2
								{
									OFFSET 0.000000 2.284103 11.993300
									CHANNELS 3 Xrotation Yrotation Zrotation
									End Site
									{
										OFFSET 0.000000 12.208862 0.000000
									}
								}
							}
						}
						JOINT newVegas:Jowel
						{
							OFFSET 0.000000 -7.458206 6.864100
							CHANNELS 3 Xrotation Yrotation Zrotation
							End Site
							{
								OFFSET 0.000000 19.849884 0.000000
							}
						}
					}
				}
				JOINT newVegas:LeftShoulder
				{
					OFFSET 15.263000 10.923401 -0.547700
					CHANNELS 3 Xrotation Yrotation Zrotation
					JOINT newVegas:LeftArm
					{
						OFFSET 25.438599 -2.830597 -13.032500
						CHANNELS 3 Xrotation Yrotation Zrotation
						JOINT newVegas:LeftForeArm
						{
							OFFSET 29.960503 0.000000 0.000000
							CHANNELS 3 Xrotation Yrotation Zrotation
							JOINT newVegas:LeftHand
							{
								OFFSET 27.849251 0.000000 0.000000
								CHANNELS 3 Xrotation Yrotation Zrotation
								JOINT newVegas:LeftHandThumb1
								{
									OFFSET 4.487587 -3.305161 6.305391
									CHANNELS 3 Xrotation Yrotation Zrotation
									JOINT newVegas:LeftHandThumb2
									{
										OFFSET 5.480453 -3.164139 3.164143
										CHANNELS 3 Xrotation Yrotation Zrotation
										JOINT newVegas:LeftHandThumb3
										{
											OFFSET 5.159721 -2.978973 2.978967
											CHANNELS 3 Xrotation Yrotation Zrotation
											End Site
											{
												OFFSET 2.494507 5.926697 1.738678
											}
										}
									}
								}
								JOINT newVegas:LeftHandIndex1
								{
									OFFSET 18.578728 -0.527832 5.208049
									CHANNELS 3 Xrotation Yrotation Zrotation
									JOINT newVegas:LeftHandIndex2
									{
										OFFSET 3.192009 0.000000 0.000000
										CHANNELS 3 Xrotation Yrotation Zrotation
										JOINT newVegas:LeftHandIndex3
										{
											OFFSET 3.835129 0.000000 0.000000
											CHANNELS 3 Xrotation Yrotation Zrotation
											End Site
											{
												OFFSET -0.034599 3.816971 0.371180
											}
										}
									}
								}
								JOINT newVegas:LeftHandMiddle1
								{
									OFFSET 18.476105 0.000000 0.000000
									CHANNELS 3 Xrotation Yrotation Zrotation
									JOINT newVegas:LeftHandMiddle2
									{
										OFFSET 3.324875 0.000000 0.000000
										CHANNELS 3 Xrotation Yrotation Zrotation
										JOINT newVegas:LeftHandMiddle3
										{
											OFFSET 4.596550 0.000000 0.000000
											CHANNELS 3 Xrotation Yrotation Zrotation
											End Site
											{
												OFFSET 0.057701 4.578827 0.399218
											}
										}
									}
								}
								JOINT newVegas:LeftHandRing1
								{
									OFFSET 17.732719 0.121887 -4.201567
									CHANNELS 3 Xrotation Yrotation Zrotation
									JOINT newVegas:LeftHandRing2
									{
										OFFSET 2.733170 0.000000 0.000000
										CHANNELS 3 Xrotation Yrotation Zrotation
										JOINT newVegas:LeftHandRing3
										{
											OFFSET 3.178268 0.000000 0.000000
											CHANNELS 3 Xrotation Yrotation Zrotation
											End Site
											{
												OFFSET 0.119102 3.170624 0.185394
											}
										}
									}
								}
								JOINT newVegas:LeftHandPinky1
								{
									OFFSET 15.989624 -0.606689 -7.535461
									CHANNELS 3 Xrotation Yrotation Zrotation
									JOINT newVegas:LeftHandPinky2
									{
										OFFSET 2.538986 0.000000 0.000000
										CHANNELS 3 Xrotation Yrotation Zrotation
										JOINT newVegas:LeftHandPinky3
										{
											OFFSET 2.593102 0.000000 0.000000
											CHANNELS 3 Xrotation Yrotation Zrotation
											End Site
											{
												OFFSET -0.150902 2.584198 0.152708
											}
										}
									}
								}
							}
							JOINT newVegas:Left_Sleeve
							{
								OFFSET 0.267448 -0.649796 0.577675
								CHANNELS 3 Xrotation Yrotation Zrotation
								End Site
								{
									OFFSET 0.000000 15.991241 0.000000
								}
							}
							JOINT newVegas:Left_CapeC
							{
								OFFSET 15.715958 -8.608795 -6.935905
								CHANNELS 3 Xrotation Yrotation Zrotation
								JOINT newVegas:Left_CapeC1
								{
									OFFSET 0.000000 -8.688499 0.000000
									CHANNELS 3 Xrotation Yrotation Zrotation
									End Site
									{
										OFFSET 0.000000 8.688499 0.000000
									}
								}
							}
						}
						JOINT newVegas:Left_CapeB
						{
							OFFSET 26.118385 -8.608795 -7.079235
							CHANNELS 3 Xrotation Yrotation Zrotation
							JOINT newVegas:Left_CapeB1
							{
								OFFSET 0.000000 -8.688499 0.000000
								CHANNELS 3 Xrotation Yrotation Zrotation
								End Site
								{
									OFFSET 0.000000 8.688499 0.000000
								}
							}
						}
						JOINT newVegas:Left_CapeA
						{
							OFFSET 5.115639 -8.608795 -10.395809
							CHANNELS 3 Xrotation Yrotation Zrotation
							JOINT newVegas:Left_CapeA1
							{
								OFFSET 0.000000 -8.688499 0.000000
								CHANNELS 3 Xrotation Yrotation Zrotation
								End Site
								{
									OFFSET 0.000000 8.688499 0.000000
								}
							}
						}
					}
				}
				JOINT newVegas:RightShoulder
				{
					OFFSET -15.263000 10.923401 -0.547700
					CHANNELS 3 Xrotation Yrotation Zrotation
					JOINT newVegas:RightArm
					{
						OFFSET -25.438599 -2.830597 -13.032500
						CHANNELS 3 Xrotation Yrotation Zrotation
						JOINT newVegas:RightForeArm
						{
							OFFSET -29.960503 0.000000 0.000000
							CHANNELS 3 Xrotation Yrotation Zrotation
							JOINT newVegas:RightHand
							{
								OFFSET -27.849251 0.000000 0.000000
								CHANNELS 3 Xrotation Yrotation Zrotation
								JOINT newVegas:RightHandThumb1
								{
									OFFSET -4.487587 -3.305161 6.305391
									CHANNELS 3 Xrotation Yrotation Zrotation
									JOINT newVegas:RightHandThumb2
									{
										OFFSET -5.480453 -3.164139 3.164143
										CHANNELS 3 Xrotation Yrotation Zrotation
										JOINT newVegas:RightHandThumb3
										{
											OFFSET -5.159721 -2.978973 2.978967
											CHANNELS 3 Xrotation Yrotation Zrotation
											End Site
											{
												OFFSET -2.494507 5.926697 1.738678
											}
										}
									}
								}
								JOINT newVegas:RightHandIndex1
								{
									OFFSET -18.578728 -0.527832 5.208049
									CHANNELS 3 Xrotation Yrotation Zrotation
									JOINT newVegas:RightHandIndex2
									{
										OFFSET -3.192009 0.000000 0.000000
										CHANNELS 3 Xrotation Yrotation Zrotation
										JOINT newVegas:RightHandIndex3
										{
											OFFSET -3.835129 0.000000 0.000000
											CHANNELS 3 Xrotation Yrotation Zrotation
											End Site
											{
												OFFSET 0.034599 3.816971 0.371180
											}
										}
									}
								}
								JOINT newVegas:RightHandMiddle1
								{
									OFFSET -18.476105 0.000000 0.000000
									CHANNELS 3 Xrotation Yrotation Zrotation
									JOINT newVegas:RightHandMiddle2
									{
										OFFSET -3.324875 0.000000 0.000000
										CHANNELS 3 Xrotation Yrotation Zrotation
										JOINT newVegas:RightHandMiddle3
										{
											OFFSET -4.596550 0.000000 0.000000
											CHANNELS 3 Xrotation Yrotation Zrotation
											End Site
											{
												OFFSET -0.057701 4.578827 0.399218
											}
										}
									}
								}
								JOINT newVegas:RightHandRing1
								{
									OFFSET -17.732719 0.121887 -4.201567
									CHANNELS 3 Xrotation Yrotation Zrotation
									JOINT newVegas:RightHandRing2
									{
										OFFSET -2.733170 0.000000 0.000000
										CHANNELS 3 Xrotation Yrotation Zrotation
										JOINT newVegas:RightHandRing3
										{
											OFFSET -3.178268 0.000000 0.000000
											CHANNELS 3 Xrotation Yrotation Zrotation
											End Site
											{
												OFFSET -0.119102 3.170624 0.185394
											}
										}
									}
								}
								JOINT newVegas:RightHandPinky1
								{
									OFFSET -15.989624 -0.606689 -7.535461
									CHANNELS 3 Xrotation Yrotation Zrotation
									JOINT newVegas:RightHandPinky2
									{
										OFFSET -2.538986 0.000000 0.000000
										CHANNELS 3 Xrotation Yrotation Zrotation
										JOINT newVegas:RightHandPinky3
										{
											OFFSET -2.593102 0.000000 0.000000
											CHANNELS 3 Xrotation Yrotation Zrotation
											End Site
											{
												OFFSET 0.150902 2.584198 0.152708
											}
										}
									}
								}
							}
							JOINT newVegas:Right_CapeC
							{
								OFFSET -15.715958 -8.608795 -6.935905
								CHANNELS 3 Xrotation Yrotation Zrotation
								JOINT newVegas:Right_CapeC1
								{
									OFFSET 0.000000 -8.688499 0.000000
									CHANNELS 3 Xrotation Yrotation Zrotation
									End Site
									{
										OFFSET 0.000000 8.688499 0.000000
									}
								}
							}
							JOINT newVegas:Right_Sleeve
							{
								OFFSET -0.267448 -0.649994 0.577675
								CHANNELS 3 Xrotation Yrotation Zrotation
								End Site
								{
									OFFSET 0.000000 15.991302 0.000000
								}
							}
						}
						JOINT newVegas:Right_CapeA
						{
							OFFSET -5.115540 -8.608795 -10.395824
							CHANNELS 3 Xrotation Yrotation Zrotation
							JOINT newVegas:Right_CapeA1
							{
								OFFSET 0.000000 -8.688499 0.000000
								CHANNELS 3 Xrotation Yrotation Zrotation
								End Site
								{
									OFFSET 0.000000 8.688499 0.000000
								}
							}
						}
						JOINT newVegas:Right_CapeB
						{
							OFFSET -26.118187 -8.608795 -7.079266
							CHANNELS 3 Xrotation Yrotation Zrotation
							JOINT newVegas:Right_CapeB1
							{
								OFFSET 0.000000 -8.688499 0.000000
								CHANNELS 3 Xrotation Yrotation Zrotation
								End Site
								{
									OFFSET 0.000000 8.688499 0.000000
								}
							}
						}
					}
				}
				JOINT newVegas:Left_Collar
				{
					OFFSET 18.625099 8.655502 8.828100
					CHANNELS 3 Xrotation Yrotation Zrotation
					JOINT newVegas:Left_Collar1
					{
						OFFSET 14.783401 10.540405 -1.259500
						CHANNELS 3 Xrotation Yrotation Zrotation
						End Site
						{
							OFFSET 0.000000 18.199875 0.000000
						}
					}
				}
				JOINT newVegas:Collar_Back
				{
					OFFSET 0.000000 15.630707 -20.132601
					CHANNELS 3 Xrotation Yrotation Zrotation
					End Site
					{
						OFFSET 0.000000 22.523010 0.000000
					}
				}
				JOINT newVegas:Left_Peck
				{
					OFFSET 17.239599 -5.132599 25.482599
					CHANNELS 3 Xrotation Yrotation Zrotation
					End Site
					{
						OFFSET 0.000000 22.523010 0.000000
					}
				}
				JOINT newVegas:Right_Peck
				{
					OFFSET -17.239599 -5.132202 25.482599
					CHANNELS 3 Xrotation Yrotation Zrotation
					End Site
					{
						OFFSET 0.000000 22.523010 0.000000
					}
				}
				JOINT newVegas:Right_Collar
				{
					OFFSET -18.625099 8.655792 8.828100
					CHANNELS 3 Xrotation Yrotation Zrotation
					JOINT newVegas:Right_Collar1
					{
						OFFSET -14.783401 10.539993 -1.259500
						CHANNELS 3 Xrotation Yrotation Zrotation
						End Site
						{
							OFFSET 0.000000 18.199631 0.000000
						}
					}
				}
			}
		}
		JOINT newVegas:Belly
		{
			OFFSET 0.000000 -6.540398 9.014299
			CHANNELS 3 Xrotation Yrotation Zrotation
			End Site
			{
				OFFSET 0.000000 11.566666 0.000000
			}
		}
	}
	JOINT newVegas:ElvisFacialAnim_Joint
	{
		OFFSET 1.000000 -95.330101 -8.825800
		CHANNELS 3 Xrotation Yrotation Zrotation
		End Site
		{
			OFFSET 0.000000 35.315800 0.000000
		}
	}
}
MOTION
Frames: 4
Frame Time: 0.033333
0.758261 92.362656 3.859241 -5.969925 9.509228 6.237728 0.000000 -0.000000 0.000000 -9.488533 5.596311 -2.327884 27.909046 -4.454517 1.337163 -12.174518 0.726083 -3.263024 -0.000000 0.000000 -0.000000 0.000001 0.000001 -0.000000 -4.205426 -9.359450 -1.789790 36.709886 -10.203528 -1.269603 -27.633064 -11.038485 1.687142 0.000000 0.000001 -0.000000 0.000001 0.000000 -0.000000 10.989442 1.234342 -8.497348 2.730457 0.568746 -1.507356 2.716964 0.568355 -1.624084 -2.019374 -0.313485 0.407276 -2.019377 -0.313482 0.407281 0.000000 0.000001 0.000000 -2.019376 -0.313498 0.407281 -2.019377 -0.313473 0.407276 -0.000000 0.000000 0.000001 0.000000 0.000001 -0.000000 0.622062 -1.322658 -11.478684 -5.776423 -25.505065 -53.630249 0.000000 -14.241345 -0.000005 2.498777 -11.372473 6.175192 -9.612991 10.925047 -0.291589 14.657523 14.208180 9.359039 -0.000002 0.000001 -0.000003 -0.727253 1.022412 -25.669815 0.602543 2.589738 -26.191445 -0.000001 0.000003 0.000001 0.309602 4.472547 -32.980552 0.988587 3.258348 -33.748125 0.000001 0.000001 0.000000 0.897175 5.484812 -40.072713 1.234955 3.599219 -37.865394 -0.000000 0.000001 -0.000001 1.898523 6.745118 -42.024706 1.298345 3.679143 -38.864210 0.000001 -0.000003 -0.000003 0.000001 -0.000000 0.000003 0.000001 -0.000000 0.000003 0.000000 -0.000000 0.000003 0.000000 0.000002 -0.000000 0.000000 0.000002 -0.000002 0.000000 0.000002 -0.000000 0.000001 0.000002 -0.000000 0.691294 4.853025 12.518138 -0.663154 14.886510 64.708037 0.000010 28.117013 -0.000005 7.137652 6.688610 -3.823828 -10.006060 -9.897253 -2.728145 13.479291 -19.954461 -5.400680 -0.000001 0.000000 0.000001 1.995524 -6.337202 26.055054 0.625689 -2.333521 30.015399 0.000003 0.000001 0.000000 2.065845 -6.737213 33.251881 0.949234 -2.819835 37.202657 0.000002 -0.000002 -0.000001 0.669854 -4.770116 42.441293 1.141590 -3.056399 40.954275 -0.000004 0.000002 0.000001 1.759286 -5.924877 44.421214 1.195364 -3.117193 41.953238 -0.000002 0.000005 -0.000000 0.000000 0.000001 -0.000000 0.000000 0.000001 -0.000000 0.000000 0.000001 -0.000001 0.000004 0.000001 0.000001 0.000004 0.000001 0.000002 0.000004 0.000001 0.000001 0.000004 0.000001 0.000002 -0.000000 -0.000001 -0.000000 -0.000000 -0.000001 -0.000000 -0.000000 -0.000001 -0.000000 -0.000000 -0.000001 -0.000000 -0.000000 -0.000001 -0.000000 -0.000000 -0.000001 -0.000000 -0.000000 -0.000001 -0.000000 0.000000 -0.000001 -0.000000 0.000000 -0.000000 0.000000 
0.833832 92.849640 3.807493 -5.723470 7.490050 4.877412 -0.000000 0.000001 0.000000 -8.667078 5.296558 -1.394312 26.986943 -2.297772 1.343552 -12.358730 0.778153 -3.657746 -0.000000 -0.000000 -0.000000 0.000001 0.000000 -0.000000 -7.986077 -9.238930 -1.297696 39.287402 -7.375261 -1.789625 -22.697543 -11.731812 0.431615 0.000000 0.000000 -0.000000 0.000003 0.000001 -0.000001 11.414258 2.253919 -7.650544 2.801505 0.828305 -1.430776 2.784328 0.826357 -1.553226 -2.079151 -0.341686 0.481915 -2.079149 -0.341695 0.481907 0.000001 0.000000 0.000000 -2.079149 -0.341613 0.481883 -2.079072 -0.341749 0.481909 -0.000000 0.000001 0.000000 0.000001 0.000000 0.000000 0.696867 -1.306188 -12.887846 -8.322533 -31.956177 -56.282463 -0.000010 -12.750851 -0.000043 1.379727 -15.311230 5.639119 -9.406735 10.710356 -0.195612 14.596403 14.480570 9.520731 -0.000000 -0.000002 -0.000003 -0.718098 0.977668 -25.285604 0.596559 2.577564 -26.058667 -0.000003 0.000001 0.000001 0.297999 4.441507 -32.663857 0.972300 3.233839 -33.460216 -0.000001 -0.000002 -0.000003 0.875592 5.449970 -39.675425 1.214603 3.572944 -37.540024 -0.000001 -0.000002 0.000001 1.877073 6.725477 -41.744180 1.271092 3.645140 -38.437617 -0.000001 -0.000005 0.000001 -0.000001 -0.000002 -0.000000 -0.000001 -0.000002 -0.000000 -0.000002 -0.000002 0.000000 0.000000 0.000001 -0.000000 0.000000 0.000000 -0.000001 0.000000 0.000001 -0.000000 0.000001 0.000001 -0.000001 0.651139 5.636900 12.816568 -2.439738 21.044376 63.721929 -0.000002 32.810648 0.000009 5.215175 11.478480 -6.628449 -10.838614 -5.927038 -2.344128 13.499803 -21.659534 -5.778997 0.000002 -0.000001 0.000001 1.816314 -6.132973 24.264107 0.513339 -2.127396 27.129460 -0.000002 0.000000 -0.000002 1.818577 -6.534686 30.638019 0.768869 -2.565229 33.364832 -0.000002 -0.000002 -0.000001 0.506160 -4.483226 38.447948 0.988401 -2.870618 37.991582 -0.000004 0.000001 0.000002 1.492308 -5.692770 40.091974 0.939964 -2.807594 37.014093 -0.000001 -0.000000 0.000001 0.000003 0.000003 -0.000001 0.000002 0.000000 0.000000 0.000003 0.000002 -0.000001 0.000002 0.000002 -0.000001 0.000003 0.000002 -0.000001 0.000002 0.000002 -0.000001 0.000003 0.000002 -0.000002 -0.000000 -0.000000 -0.000000 -0.000000 -0.000000 -0.000000 -0.000000 -0.000000 -0.000000 -0.000000 -0.000000 -0.000000 -0.000000 -0.000000 -0.000000 -0.000000 -0.000000 -0.000000 -0.000000 -0.000000 -0.000000 0.000000 -0.000001 0.000000 -0.000000 0.000001 0.000000 
0.601505 93.232368 3.537477 -5.003521 5.702298 3.110434 -0.000000 -0.000000 -0.000000 -9.305127 4.902772 0.251419 27.212350 -0.380193 1.381321 -12.734021 0.878970 -4.260717 -0.000000 0.000000 -0.000000 0.000000 0.000001 -0.000000 -11.529321 -10.222082 -2.263604 40.769983 -7.732379 0.318081 -17.281354 -7.491778 0.771472 0.000000 -0.000001 0.000000 0.000001 -0.000000 0.000000 11.654769 2.382844 -6.851267 2.649953 0.856294 -1.270217 2.634830 0.856307 -1.391067 -2.088827 -0.322526 0.550053 -2.088832 -0.322533 0.550058 -0.000000 -0.000001 -0.000000 -2.088973 -0.322545 0.550058 -2.088686 -0.322524 0.550057 -0.000000 0.000000 0.000000 -0.000000 -0.000001 -0.000000 0.698503 -1.482690 -13.072311 -11.653639 -37.141052 -60.739957 -0.000005 -11.310554 -0.000020 -2.045401 -17.905944 4.319302 -9.200500 10.496105 -0.098497 14.535124 14.752413 9.683227 -0.000001 -0.000004 -0.000008 -0.709919 0.938940 -24.952604 0.595229 2.574832 -26.029007 0.000000 -0.000001 -0.000002 0.290984 4.422412 -32.469531 0.963488 3.220545 -33.304245 0.000003 0.000000 -0.000000 0.857622 5.420527 -39.340947 1.200539 3.554588 -37.313665 0.000003 -0.000004 0.000002 1.862950 6.712413 -41.558549 1.250666 3.619333 -38.115410 0.000001 -0.000003 0.000001 -0.000003 -0.000001 -0.000000 -0.000003 -0.000001 -0.000000 -0.000003 -0.000001 -0.000000 -0.000003 0.000001 -0.000000 -0.000003 0.000000 0.000000 -0.000003 0.000001 -0.000000 -0.000002 0.000002 0.000000 0.608705 6.349217 12.842923 -3.981531 26.920209 63.269258 0.000007 38.190870 -0.000010 3.014046 13.817150 -5.805813 -11.877660 -1.727545 -1.904143 13.523042 -23.488211 -6.176074 0.000001 -0.000004 -0.000001 1.642604 -5.943457 22.144153 0.398426 -1.886509 23.849170 -0.000001 0.000002 0.000000 1.556998 -6.297245 27.641198 0.586972 -2.265252 29.050868 -0.000002 -0.000002 -0.000001 0.348518 -4.152355 34.018078 0.830133 -2.655845 34.709802 0.000000 0.000004 0.000001 1.220278 -5.415419 35.337848 0.689901 -2.441217 31.557192 0.000002 -0.000002 0.000001 0.000002 0.000003 -0.000001 0.000002 0.000001 0.000001 0.000002 0.000002 -0.000001 0.000000 0.000003 0.000001 0.000000 0.000002 0.000001 0.000000 0.000003 0.000001 0.000000 0.000002 0.000001 0.000000 -0.000001 -0.000001 0.000000 -0.000001 -0.000001 0.000000 -0.000001 -0.000001 0.000000 -0.000001 -0.000001 0.000000 -0.000001 -0.000001 0.000000 -0.000001 -0.000001 0.000000 -0.000001 -0.000001 0.000001 -0.000000 -0.000000 -0.000000 -0.000000 -0.000000 
0.110508 93.263931 3.070004 -4.404662 4.172368 1.600274 0.000000 -0.000000 0.000000 -10.942565 4.451739 2.002215 29.117691 1.190608 1.430478 -13.626368 1.043670 -5.012309 -0.000000 0.000000 0.000000 -0.000000 -0.000001 -0.000000 -15.682490 -12.128652 -4.747644 44.034988 -10.458430 4.331897 -12.264344 0.823154 0.133824 0.000000 -0.000000 -0.000000 0.000001 0.000002 -0.000003 12.247333 1.789684 -6.560388 2.442824 0.716775 -1.091265 2.432368 0.718413 -1.206482 -2.045437 -0.276464 0.643526 -2.045421 -0.276465 0.643525 -0.000000 0.000001 -0.000000 -2.045218 -0.276457 0.643526 -2.045588 -0.276459 0.643526 0.000001 0.000000 -0.000001 -0.000000 0.000001 0.000000 0.644410 -2.319409 -12.692301 -13.549188 -39.846306 -64.195876 0.000001 -14.947234 0.000015 -10.967250 -10.468175 -0.620694 -8.994242 10.282271 -0.000267 14.473698 15.023706 9.846539 0.000002 -0.000004 -0.000003 -0.702056 0.902703 -24.640580 0.595799 2.575978 -26.041519 -0.000002 0.000002 0.000001 0.285786 4.408237 -32.325294 0.957787 3.211829 -33.202243 0.000002 -0.000001 0.000001 0.841184 5.393251 -39.032185 1.189028 3.539490 -37.127805 0.000003 -0.000001 -0.000001 1.851788 6.702072 -41.411792 1.233103 3.596833 -37.835932 0.000002 -0.000002 -0.000002 0.000000 0.000001 -0.000000 0.000000 0.000001 -0.000000 -0.000000 0.000001 0.000000 -0.000002 -0.000001 0.000001 -0.000002 -0.000002 0.000000 -0.000002 -0.000001 0.000001 -0.000001 -0.000000 0.000001 0.560390 7.206658 12.864888 -5.615456 31.924287 62.973046 -0.000015 44.611241 0.000024 -1.494896 8.768526 -3.331854 -13.071400 2.493555 -1.384272 13.546392 -25.346786 -6.584055 0.000003 -0.000006 -0.000005 1.477745 -5.752104 19.939001 0.294575 -1.631548 20.466189 -0.000001 0.000001 -0.000000 1.305944 -6.038168 24.546286 0.423946 -1.943229 24.613567 -0.000000 -0.000002 -0.000001 0.213955 -3.801314 29.475978 0.680920 -2.426527 31.345248 0.000001 0.000001 0.000000 0.966857 -5.109300 30.475191 0.471049 -2.042770 25.966957 -0.000001 0.000003 0.000002 -0.000002 -0.000002 -0.000001 -0.000000 -0.000002 -0.000002 -0.000002 -0.000002 -0.000000 0.000000 -0.000001 0.000002 0.000000 -0.000001 0.000003 0.000000 -0.000001 0.000002 0.000000 -0.000001 0.000003 -0.000000 0.000000 -0.000000 -0.000000 0.000000 -0.000000 -0.000000 0.000000 -0.000000 -0.000000 0.000000 -0.000000 -0.000000 0.000000 -0.000000 -0.000000 0.000000 -0.000000 -0.000000 0.000000 -0.000000 -0.000000 -0.000000 0.000000 0.000000 -0.000000 0.000000 
